<svg width="18" height="18" viewBox="0 0 18 18" fill="none" xmlns="http://www.w3.org/2000/svg">
<g clip-path="url(#clip0_112_1476)">
<path d="M10.6875 12.375H10.125C9.82665 12.375 9.54045 12.2565 9.32947 12.0455C9.1185 11.8345 9 11.5483 9 11.25V8.4375C9 8.28833 8.94075 8.14522 8.83523 8.03977C8.72978 7.93425 8.58667 7.875 8.4375 7.875H7.875" stroke="white" stroke-width="1.5" stroke-linecap="round" stroke-linejoin="round"/>
<path d="M8.71875 5.625C8.56342 5.625 8.4375 5.49908 8.4375 5.34375C8.4375 5.18842 8.56342 5.0625 8.71875 5.0625" stroke="white" stroke-width="1.5"/>
<path d="M8.71875 5.625C8.87408 5.625 9 5.49908 9 5.34375C9 5.18842 8.87408 5.0625 8.71875 5.0625" stroke="white" stroke-width="1.5"/>
<path d="M9 17.4375C13.6599 17.4375 17.4375 13.6599 17.4375 9C17.4375 4.3401 13.6599 0.5625 9 0.5625C4.3401 0.5625 0.5625 4.3401 0.5625 9C0.5625 13.6599 4.3401 17.4375 9 17.4375Z" stroke="white" stroke-width="1.5" stroke-linecap="round" stroke-linejoin="round"/>
</g>
<defs>
<clipPath id="clip0_112_1476">
<rect width="18" height="18" fill="white"/>
</clipPath>
</defs>
</svg>
