<svg width="20" height="20" viewBox="0 0 20 20" fill="none" xmlns="http://www.w3.org/2000/svg">
<circle cx="10.5" cy="10.5" r="9" stroke="white"/>
<path d="M6.5625 7.5C6.5625 8.41168 6.92466 9.28602 7.56932 9.93068C8.21398 10.5753 9.08832 10.9375 10 10.9375C10.9117 10.9375 11.786 10.5753 12.4307 9.93068C13.0753 9.28602 13.4375 8.41168 13.4375 7.5C13.4375 6.58832 13.0753 5.71398 12.4307 5.06932C11.786 4.42466 10.9117 4.0625 10 4.0625C9.08832 4.0625 8.21398 4.42466 7.56932 5.06932C6.92466 5.71398 6.5625 6.58832 6.5625 7.5Z" stroke="white" stroke-width="1.5" stroke-linecap="round" stroke-linejoin="round"/>
<path d="M15.3036 15.9383C14.9159 14.8414 14.1976 13.8917 13.2477 13.2199C12.2977 12.5482 11.1629 12.1875 9.99948 12.1875C8.83605 12.1875 7.70123 12.5482 6.7513 13.2199C5.80138 13.8917 5.08308 14.8414 4.69531 15.9383" stroke="white" stroke-width="1.5" stroke-linecap="round" stroke-linejoin="round"/>
</svg>
