<svg width="64" height="64" viewBox="0 0 64 64" fill="none" xmlns="http://www.w3.org/2000/svg">
<path d="M42.334 15.5391C42.334 17.6608 43.1768 19.6956 44.6771 21.1959C46.1774 22.6962 48.2123 23.5391 50.334 23.5391C52.4557 23.5391 54.4905 22.6962 55.9908 21.1959C57.4911 19.6956 58.334 17.6608 58.334 15.5391C58.334 13.4173 57.4911 11.3825 55.9908 9.88221C54.4905 8.38192 52.4557 7.53906 50.334 7.53906C48.2123 7.53906 46.1774 8.38192 44.6771 9.88221C43.1768 11.3825 42.334 13.4173 42.334 15.5391Z" stroke="#8B8B8B" stroke-width="1.5" stroke-linecap="round" stroke-linejoin="round"/>
<path d="M24.6152 55.3125C24.9275 56.7334 25.5759 57.981 26.4634 58.8685C27.3509 59.7559 28.4297 60.2356 29.5383 60.2356C30.6469 60.2356 31.7257 59.7559 32.6132 58.8685C33.5007 57.981 34.1491 56.7334 34.4614 55.3125" stroke="#8B8B8B" stroke-width="1.5" stroke-linecap="round" stroke-linejoin="round"/>
<path d="M29.666 8V2" stroke="#8B8B8B" stroke-width="1.5" stroke-linecap="round" stroke-linejoin="round"/>
<path d="M49.7274 31.8956C50.2314 47.2449 53.666 49.9996 53.666 49.9996H5.66602C5.66602 49.9996 9.66602 44.8902 9.66602 27.9996C9.66901 24.8663 10.4074 21.7775 11.8219 18.9817C13.2363 16.1859 15.2872 13.7611 17.8097 11.9025C20.3321 10.0439 23.2556 8.80327 26.345 8.28055C29.4343 7.75783 32.6032 7.96757 35.5967 8.8929" stroke="#8B8B8B" stroke-width="1.5" stroke-linecap="round" stroke-linejoin="round"/>
</svg>
