<svg width="17" height="18" viewBox="0 0 17 18" fill="none" xmlns="http://www.w3.org/2000/svg">
<g clip-path="url(#clip0_96_392)">
<path d="M11.2449 4.62744C11.2449 5.19103 11.4688 5.73153 11.8673 6.13004C12.2658 6.52856 12.8063 6.75244 13.3699 6.75244C13.9335 6.75244 14.474 6.52856 14.8725 6.13004C15.271 5.73153 15.4949 5.19103 15.4949 4.62744C15.4949 4.06386 15.271 3.52335 14.8725 3.12484C14.474 2.72632 13.9335 2.50244 13.3699 2.50244C12.8063 2.50244 12.2658 2.72632 11.8673 3.12484C11.4688 3.52335 11.2449 4.06386 11.2449 4.62744Z" stroke="white" stroke-width="1.5" stroke-linecap="round" stroke-linejoin="round"/>
<path d="M6.53857 15.1924C6.62152 15.5698 6.79375 15.9012 7.02949 16.1369C7.26523 16.3727 7.55179 16.5001 7.84627 16.5001C8.14075 16.5001 8.4273 16.3727 8.66304 16.1369C8.89878 15.9012 9.07101 15.5698 9.15396 15.1924" stroke="white" stroke-width="1.5" stroke-linecap="round" stroke-linejoin="round"/>
<path d="M7.88013 2.625V1.03125" stroke="white" stroke-width="1.5" stroke-linecap="round" stroke-linejoin="round"/>
<path d="M13.2089 8.97226C13.3428 13.0494 14.2551 13.7811 14.2551 13.7811H1.50513C1.50513 13.7811 2.56763 12.424 2.56763 7.93738C2.56842 7.10512 2.76456 6.28465 3.14027 5.54202C3.51598 4.79938 4.06076 4.1553 4.73079 3.6616C5.40081 3.1679 6.17737 2.83837 6.99797 2.69952C7.81857 2.56067 8.66031 2.61639 9.45546 2.86218" stroke="white" stroke-width="1.5" stroke-linecap="round" stroke-linejoin="round"/>
</g>
<defs>
<clipPath id="clip0_96_392">
<rect width="17" height="17" fill="white" transform="translate(0 0.5)"/>
</clipPath>
</defs>
</svg>
