<svg width="48" height="59" viewBox="0 0 48 59" fill="none" xmlns="http://www.w3.org/2000/svg">
<path d="M46.5 45.6035V52.7804C46.5 54.6942 45.1 56.3688 43.5 56.3688H37.5" stroke="#B9B6B6" stroke-width="1.5" stroke-miterlimit="10" stroke-linecap="round" stroke-linejoin="round"/>
<path d="M37.5 2.54297H43.5C45.1 2.54297 46.5 4.21757 46.5 6.13139V13.3082" stroke="#B9B6B6" stroke-width="1.5" stroke-miterlimit="10" stroke-linecap="round" stroke-linejoin="round"/>
<path d="M1.5 13.3082V6.13139C1.5 4.21757 2.9 2.54297 4.5 2.54297H10.5" stroke="#B9B6B6" stroke-width="1.5" stroke-miterlimit="10" stroke-linecap="round" stroke-linejoin="round"/>
<path d="M10.5 56.3688H4.5C2.9 56.3688 1.5 54.6942 1.5 52.7804V45.6035" stroke="#B9B6B6" stroke-width="1.5" stroke-miterlimit="10" stroke-linecap="round" stroke-linejoin="round"/>
<path d="M30.8988 19.7659L29.2988 13.7852H18.2988L16.6988 19.7659H12.2988C10.6988 19.7659 9.29883 21.4405 9.29883 23.3543V38.1863C9.29883 40.1001 10.6988 41.7747 12.2988 41.7747H35.2988C36.8988 41.7747 38.2988 40.1001 38.2988 38.1863V23.3543C38.2988 21.4405 36.8988 19.7659 35.2988 19.7659H30.8988Z" stroke="#B9B6B6" stroke-width="1.5" stroke-miterlimit="10" stroke-linecap="round" stroke-linejoin="round"/>
<path d="M23.8995 35.555C26.5505 35.555 28.6995 32.9845 28.6995 29.8135C28.6995 26.6425 26.5505 24.0723 23.8995 24.0723C21.2487 24.0723 19.0996 26.6425 19.0996 29.8135C19.0996 32.9845 21.2487 35.555 23.8995 35.555Z" stroke="#B9B6B6" stroke-width="1.5" stroke-miterlimit="10" stroke-linecap="round" stroke-linejoin="round"/>
</svg>
