<svg width="18" height="18" viewBox="0 0 18 18" fill="none" xmlns="http://www.w3.org/2000/svg">
<path d="M0.5625 9.35324L8.145 1.76324C8.25672 1.65082 8.39011 1.56227 8.53708 1.50297C8.68406 1.44366 8.84155 1.41484 9 1.41824C9.31789 1.4196 9.62241 1.54626 9.8475 1.77074L17.4375 9.35324" stroke="white" stroke-width="1.5" stroke-linecap="round" stroke-linejoin="round"/>
<path d="M15.0307 6.945V16.5825H2.9707V6.9375" stroke="white" stroke-width="1.5" stroke-linecap="round" stroke-linejoin="round"/>
<path d="M11.4068 16.585V12.97C11.4068 12.3315 11.1532 11.7191 10.7017 11.2676C10.2502 10.8161 9.63781 10.5625 8.9993 10.5625C8.36079 10.5625 7.74843 10.8161 7.29694 11.2676C6.84544 11.7191 6.5918 12.3315 6.5918 12.97V16.585" stroke="white" stroke-width="1.5" stroke-linecap="round" stroke-linejoin="round"/>
<path d="M7.39453 6.44484C7.39453 6.87052 7.56363 7.27875 7.86463 7.57975C8.16562 7.88075 8.57386 8.04984 8.99953 8.04984C9.4252 8.04984 9.83344 7.88075 10.1344 7.57975C10.4354 7.27875 10.6045 6.87052 10.6045 6.44484C10.6045 6.01917 10.4354 5.61093 10.1344 5.30994C9.83344 5.00894 9.4252 4.83984 8.99953 4.83984C8.57386 4.83984 8.16562 5.00894 7.86463 5.30994C7.56363 5.61093 7.39453 6.01917 7.39453 6.44484Z" stroke="white" stroke-width="1.5" stroke-linecap="round" stroke-linejoin="round"/>
</svg>
