<svg width="54" height="13" viewBox="0 0 54 13" fill="none" xmlns="http://www.w3.org/2000/svg">
<rect x="0.425781" width="53.2412" height="13" rx="1" fill="#FB1515" fill-opacity="0.3"/>
<path d="M3.11055 10V3.7H4.04655V10H3.11055ZM5.2607 10V3.7H6.2732L9.1667 8.308V3.7H10.1027V10H9.0902L6.1967 5.392V10H5.2607ZM11.1845 6.832H14.0645V7.768H11.1845V6.832ZM19.9139 3.7V4.636H17.9069V10H16.9709V4.636H14.9684V3.7H19.9139ZM20.8173 10V3.7H23.1348C23.4768 3.7 23.7843 3.784 24.0573 3.952C24.3303 4.12 24.5463 4.3465 24.7053 4.6315C24.8673 4.9135 24.9483 5.2285 24.9483 5.5765C24.9483 5.8705 24.8928 6.139 24.7818 6.382C24.6738 6.625 24.5208 6.832 24.3228 7.003C24.1278 7.174 23.9043 7.297 23.6523 7.372L25.1733 10H24.0888L22.6128 7.4575H21.7533V10H20.8173ZM21.7533 6.5215H23.0358C23.2158 6.5215 23.3793 6.4765 23.5263 6.3865C23.6763 6.2965 23.7948 6.1765 23.8818 6.0265C23.9688 5.8765 24.0123 5.707 24.0123 5.518C24.0123 5.329 23.9688 5.1595 23.8818 5.0095C23.7948 4.8565 23.6763 4.7365 23.5263 4.6495C23.3793 4.5595 23.2158 4.5145 23.0358 4.5145H21.7533V6.5215ZM28.0431 3.7H29.1366L31.4271 10H30.4371L30.0006 8.803H27.1791L26.7471 10H25.7526L28.0431 3.7ZM27.5256 7.867H29.6541L28.5876 4.942L27.5256 7.867ZM32.2168 10V3.7H33.2293L36.1228 8.308V3.7H37.0588V10H36.0463L33.1528 5.392V10H32.2168ZM40.3861 10.117C40.0411 10.117 39.7096 10.063 39.3916 9.955C39.0736 9.847 38.7961 9.6925 38.5591 9.4915C38.3221 9.2875 38.1526 9.046 38.0506 8.767L38.9281 8.4385C38.9791 8.5825 39.0766 8.7115 39.2206 8.8255C39.3676 8.9365 39.5416 9.0235 39.7426 9.0865C39.9466 9.1495 40.1611 9.181 40.3861 9.181C40.6261 9.181 40.8511 9.142 41.0611 9.064C41.2741 8.986 41.4451 8.878 41.5741 8.74C41.7061 8.602 41.7721 8.44 41.7721 8.254C41.7721 8.062 41.7031 7.9045 41.5651 7.7815C41.4301 7.6585 41.2561 7.561 41.0431 7.489C40.8331 7.417 40.6141 7.363 40.3861 7.327C39.9451 7.255 39.5491 7.15 39.1981 7.012C38.8501 6.874 38.5741 6.6805 38.3701 6.4315C38.1691 6.1825 38.0686 5.8585 38.0686 5.4595C38.0686 5.0845 38.1751 4.7575 38.3881 4.4785C38.6041 4.1995 38.8876 3.9835 39.2386 3.8305C39.5926 3.6745 39.9751 3.5965 40.3861 3.5965C40.7251 3.5965 41.0521 3.6505 41.3671 3.7585C41.6851 3.8635 41.9641 4.018 42.2041 4.222C42.4471 4.423 42.6211 4.6675 42.7261 4.9555L41.8396 5.275C41.7886 5.128 41.6911 5.0005 41.5471 4.8925C41.4031 4.7815 41.2291 4.6945 41.0251 4.6315C40.8241 4.5685 40.6111 4.537 40.3861 4.537C40.1461 4.534 39.9211 4.573 39.7111 4.654C39.5041 4.732 39.3346 4.84 39.2026 4.978C39.0706 5.116 39.0046 5.2765 39.0046 5.4595C39.0046 5.6845 39.0661 5.8555 39.1891 5.9725C39.3121 6.0895 39.4771 6.1765 39.6841 6.2335C39.8941 6.2875 40.1281 6.337 40.3861 6.382C40.8001 6.448 41.1826 6.5575 41.5336 6.7105C41.8876 6.8635 42.1711 7.0675 42.3841 7.3225C42.6001 7.5745 42.7081 7.885 42.7081 8.254C42.7081 8.626 42.6001 8.953 42.3841 9.235C42.1711 9.514 41.8876 9.7315 41.5336 9.8875C41.1826 10.0405 40.8001 10.117 40.3861 10.117ZM43.883 10V3.7H44.819V10H43.883ZM50.7987 3.7V4.636H48.7917V10H47.8557V4.636H45.8532V3.7H50.7987Z" fill="white" fill-opacity="0.8"/>
</svg>
