<svg width="18" height="18" viewBox="0 0 18 18" fill="none" xmlns="http://www.w3.org/2000/svg">
<g clip-path="url(#clip0_112_1459)">
<path d="M4.5 14.6254H11.94C12.206 14.6256 12.4634 14.5315 12.6667 14.3599C12.8699 14.1883 13.0057 13.9502 13.05 13.6879L15 2.06292C15.0451 1.79548 15.1853 1.55335 15.3948 1.38109C15.6043 1.20882 15.8689 1.11802 16.14 1.12542H16.89" stroke="white" stroke-width="1.5" stroke-linecap="round" stroke-linejoin="round"/>
<path d="M5.86133 16.8828C5.706 16.8828 5.58008 16.7569 5.58008 16.6016C5.58008 16.4462 5.706 16.3203 5.86133 16.3203" stroke="white" stroke-width="1.5"/>
<path d="M5.86133 16.8828C6.01666 16.8828 6.14258 16.7569 6.14258 16.6016C6.14258 16.4462 6.01666 16.3203 5.86133 16.3203" stroke="white" stroke-width="1.5"/>
<path d="M11.5391 16.8828C11.3837 16.8828 11.2578 16.7569 11.2578 16.6016C11.2578 16.4462 11.3837 16.3203 11.5391 16.3203" stroke="white" stroke-width="1.5"/>
<path d="M11.5391 16.8828C11.6944 16.8828 11.8203 16.7569 11.8203 16.6016C11.8203 16.4462 11.6944 16.3203 11.5391 16.3203" stroke="white" stroke-width="1.5"/>
<path d="M13.4994 11.25H4.40944C3.91181 11.2451 3.42987 11.0753 3.03903 10.7672C2.64819 10.4591 2.37051 10.0302 2.24944 9.5475L1.13944 5.1975C1.12057 5.11469 1.12019 5.02874 1.13834 4.94578C1.15649 4.8628 1.19272 4.78486 1.24444 4.7175C1.29684 4.65002 1.36392 4.59537 1.44059 4.55768C1.51726 4.52 1.6015 4.50027 1.68694 4.5H14.6094" stroke="white" stroke-width="1.5" stroke-linecap="round" stroke-linejoin="round"/>
<path d="M13.5008 4.50022L10.6883 1.68772C10.4229 1.42483 10.0644 1.27734 9.69084 1.27734C9.31726 1.27734 8.95876 1.42483 8.69334 1.68772L5.88086 4.50022" stroke="white" stroke-width="1.5" stroke-linecap="round" stroke-linejoin="round"/>
<path d="M7.8825 2.50624L4.5825 1.53874C4.40572 1.48598 4.22023 1.4688 4.03677 1.48821C3.85331 1.50762 3.67552 1.56323 3.5137 1.65182C3.35187 1.7404 3.20922 1.8602 3.09401 2.00429C2.9788 2.14838 2.89331 2.31389 2.8425 2.49124L2.25 4.50124" stroke="white" stroke-width="1.5" stroke-linecap="round" stroke-linejoin="round"/>
</g>
<defs>
<clipPath id="clip0_112_1459">
<rect width="18" height="18" fill="white"/>
</clipPath>
</defs>
</svg>
