<svg width="11" height="12" viewBox="0 0 11 12" fill="none" xmlns="http://www.w3.org/2000/svg">
<path d="M6.32636 10.6537L6.33094 10.6569C6.72691 10.959 7.19708 11.0902 7.66376 11.029C8.13044 10.9677 8.56569 10.7175 8.89761 10.3199L9.1859 9.97409C9.31479 9.81968 9.38719 9.61029 9.38719 9.39196C9.38719 9.17363 9.31479 8.96424 9.1859 8.80983L7.96994 7.3541C7.9061 7.27759 7.83029 7.21689 7.74685 7.17548C7.66341 7.13407 7.57397 7.11276 7.48365 7.11276C7.39333 7.11276 7.30389 7.13407 7.22045 7.17548C7.13701 7.21689 7.0612 7.27759 6.99736 7.3541C6.86843 7.50846 6.6936 7.59518 6.5113 7.59518C6.329 7.59518 6.15416 7.50846 6.02523 7.3541L4.08052 5.02559C3.95164 4.87118 3.87923 4.66179 3.87923 4.44346C3.87923 4.22513 3.95164 4.01574 4.08052 3.86134C4.14441 3.78487 4.19509 3.69408 4.22967 3.59415C4.26425 3.49422 4.28204 3.3871 4.28204 3.27893C4.28204 3.17076 4.26425 3.06365 4.22967 2.96372C4.19509 2.86379 4.14441 2.773 4.08052 2.69653L2.86548 1.24135C2.80164 1.16483 2.72583 1.10414 2.64239 1.06273C2.55895 1.02131 2.46951 1 2.37919 1C2.28887 1 2.19943 1.02131 2.11599 1.06273C2.03255 1.10414 1.95675 1.16483 1.8929 1.24135L1.60461 1.58662C1.27252 1.98407 1.06358 2.50531 1.01233 3.06423C0.961078 3.62314 1.07058 4.18627 1.32273 4.66056L1.32594 4.66605C2.65782 7.0264 4.35528 9.05897 6.32636 10.6537Z" stroke="white" stroke-opacity="0.8" stroke-linecap="round" stroke-linejoin="round"/>
</svg>
