<svg width="18" height="18" viewBox="0 0 18 18" fill="none" xmlns="http://www.w3.org/2000/svg">
<g clip-path="url(#clip0_112_1468)">
<path d="M7.90895 1.82914C8.04658 1.98191 8.21478 2.10406 8.40263 2.18767C8.59049 2.27129 8.79383 2.31449 8.99945 2.31449C9.20508 2.31449 9.40841 2.27129 9.59627 2.18767C9.78413 2.10406 9.95232 1.98191 10.09 1.82914L10.7995 1.05064C11.0028 0.825592 11.2708 0.668993 11.5667 0.602332C11.8626 0.535671 12.1718 0.562215 12.452 0.678322C12.7322 0.794428 12.9696 0.994406 13.1317 1.25081C13.2937 1.50721 13.3724 1.80748 13.3569 2.11039L13.3037 3.16039C13.2934 3.36522 13.3261 3.56993 13.3998 3.76135C13.4734 3.95276 13.5863 4.12664 13.7312 4.27176C13.8761 4.41689 14.0498 4.53005 14.2411 4.60396C14.4324 4.67787 14.6371 4.71089 14.842 4.70089L15.892 4.64764C16.1947 4.63271 16.4946 4.71177 16.7506 4.87398C17.0066 5.03618 17.2062 5.2736 17.3221 5.55369C17.4379 5.83377 17.4642 6.14282 17.3975 6.43847C17.3308 6.73413 17.1743 7.00191 16.9495 7.20514L16.168 7.91014C16.0154 8.04796 15.8934 8.21626 15.8099 8.40417C15.7264 8.59207 15.6833 8.7954 15.6833 9.00101C15.6833 9.20663 15.7264 9.40995 15.8099 9.59786C15.8934 9.78576 16.0154 9.95406 16.168 10.0919L16.9495 10.7969C17.1745 11.0002 17.3311 11.2682 17.3978 11.5641C17.4644 11.86 17.4379 12.1693 17.3218 12.4495C17.2057 12.7297 17.0057 12.9671 16.7493 13.1291C16.4929 13.2911 16.1926 13.3698 15.8897 13.3544L14.8397 13.3011C14.6344 13.2906 14.4292 13.3232 14.2373 13.397C14.0455 13.4707 13.8712 13.584 13.7259 13.7293C13.5805 13.8747 13.4673 14.0489 13.3936 14.2408C13.3198 14.4326 13.2871 14.6379 13.2977 14.8431L13.351 15.8931C13.3644 16.1945 13.2847 16.4927 13.1227 16.7473C12.9608 17.0018 12.7244 17.2003 12.4457 17.3158C12.167 17.4313 11.8595 17.4582 11.565 17.3929C11.2704 17.3276 11.0032 17.1732 10.7995 16.9506L10.0937 16.1699C9.95595 16.0173 9.78771 15.8954 9.59987 15.8119C9.41203 15.7284 9.20876 15.6853 9.0032 15.6853C8.79765 15.6853 8.59438 15.7284 8.40653 15.8119C8.21869 15.8954 8.05046 16.0173 7.9127 16.1699L7.20395 16.9506C7.00056 17.1742 6.73317 17.3296 6.43824 17.3956C6.1433 17.4617 5.83517 17.4352 5.55586 17.3197C5.27654 17.2043 5.03963 17.0055 4.87743 16.7504C4.71522 16.4954 4.63561 16.1966 4.64945 15.8946L4.70345 14.8446C4.71401 14.6394 4.68135 14.4341 4.6076 14.2423C4.53384 14.0504 4.42063 13.8762 4.27528 13.7308C4.12993 13.5855 3.95568 13.4722 3.76381 13.3985C3.57195 13.3247 3.36673 13.2921 3.16145 13.3026L2.11145 13.3559C1.80866 13.3717 1.50841 13.2934 1.2519 13.1317C0.995401 12.9701 0.795227 12.733 0.678863 12.453C0.562499 12.173 0.53565 11.8639 0.602004 11.568C0.668357 11.2722 0.824659 11.0041 1.04945 10.8006L1.8302 10.0956C1.98279 9.95781 2.10476 9.78951 2.18824 9.60161C2.27173 9.4137 2.31486 9.21038 2.31486 9.00476C2.31486 8.79915 2.27173 8.59582 2.18824 8.40792C2.10476 8.22001 1.98279 8.05171 1.8302 7.91389L1.04945 7.20514C0.825388 7.00189 0.669563 6.7344 0.603277 6.43924C0.53699 6.14408 0.563478 5.83565 0.679117 5.55611C0.794757 5.27657 0.993906 5.03957 1.24934 4.87749C1.50478 4.71542 1.80403 4.63619 2.1062 4.65064L3.1562 4.70389C3.36187 4.7147 3.56752 4.68213 3.75978 4.60829C3.95205 4.53445 4.12663 4.421 4.27219 4.27529C4.41775 4.12959 4.53104 3.9549 4.60469 3.76256C4.67834 3.57023 4.71071 3.36455 4.6997 3.15889L4.64945 2.10814C4.63528 1.80608 4.71465 1.50702 4.87673 1.25174C5.03882 0.996467 5.27571 0.797419 5.5551 0.681759C5.83449 0.566098 6.14277 0.539459 6.43786 0.605476C6.73295 0.671493 7.00048 0.826951 7.20395 1.05064L7.90895 1.82914Z" stroke="white" stroke-width="1.5" stroke-linecap="round" stroke-linejoin="round"/>
<path d="M5.625 9C5.625 9.89511 5.98058 10.7536 6.61351 11.3865C7.24645 12.0194 8.10489 12.375 9 12.375C9.89511 12.375 10.7535 12.0194 11.3865 11.3865C12.0194 10.7536 12.375 9.89511 12.375 9C12.375 8.10489 12.0194 7.24645 11.3865 6.61351C10.7535 5.98058 9.89511 5.625 9 5.625C8.10489 5.625 7.24645 5.98058 6.61351 6.61351C5.98058 7.24645 5.625 8.10489 5.625 9Z" stroke="white" stroke-width="1.5" stroke-linecap="round" stroke-linejoin="round"/>
</g>
<defs>
<clipPath id="clip0_112_1468">
<rect width="18" height="18" fill="white"/>
</clipPath>
</defs>
</svg>
