<svg width="100" height="100" viewBox="0 0 100 100" fill="none" xmlns="http://www.w3.org/2000/svg">
<g clip-path="url(#clip0_112_1427)">
<path d="M96.4812 49.9987C98.0256 48.2003 99.1078 46.0522 99.6341 43.7408C100.16 41.4295 100.115 39.0246 99.5011 36.7348C98.8875 34.4451 97.7245 32.3396 96.113 30.6011C94.5015 28.8626 92.4902 27.5435 90.2534 26.7583C90.6917 24.4285 90.5549 22.027 89.8548 19.7621C89.1548 17.4972 87.9127 15.4373 86.2363 13.7611C84.5599 12.0849 82.4999 10.8431 80.2349 10.1433C77.9699 9.4436 75.5683 9.30709 73.2386 9.74564C72.454 7.50842 71.1352 5.49652 69.3966 3.88462C67.6581 2.27272 65.5524 1.10954 63.2623 0.496083C60.9722 -0.117379 58.567 -0.162585 56.2555 0.364389C53.944 0.891363 51.7961 1.97459 49.9982 3.52002C48.1997 1.97565 46.0517 0.893402 43.7403 0.367156C41.4289 -0.15909 39.024 -0.113438 36.7342 0.50015C34.4445 1.11374 32.339 2.27673 30.6005 3.88824C28.862 5.49975 27.5429 7.5111 26.7577 9.74781C24.4281 9.30996 22.0268 9.44709 19.7622 10.1473C17.4976 10.8475 15.438 12.0897 13.7621 13.766C12.0862 15.4423 10.8446 17.5022 10.1449 19.767C9.44529 22.0318 9.30878 24.4331 9.74722 26.7626C7.51051 27.5478 5.49915 28.8669 3.88765 30.6054C2.27614 32.344 1.11314 34.4494 0.499551 36.7392C-0.114037 39.0289 -0.159696 41.4338 0.36655 43.7452C0.892796 46.0566 1.97507 48.2046 3.51943 50.0031C1.9746 51.8014 0.891994 53.9497 0.365598 56.2613C-0.160798 58.5729 -0.115099 60.9781 0.498757 63.268C1.11261 65.558 2.27606 67.6635 3.88812 69.4019C5.50018 71.1403 7.51216 72.459 9.74939 73.2435C9.31057 75.5731 9.44693 77.9746 10.1466 80.2395C10.8464 82.5044 12.0883 84.5643 13.7646 86.2404C15.441 87.9165 17.501 89.1582 19.766 89.8576C22.0311 90.5571 24.4325 90.6931 26.7621 90.254C27.5473 92.4907 28.8663 94.5021 30.6049 96.1136C32.3434 97.7251 34.4488 98.8881 36.7386 99.5017C39.0283 100.115 41.4332 100.161 43.7446 99.6347C46.056 99.1084 48.2041 98.0262 50.0025 96.4818C51.8009 98.0266 53.9491 99.1092 56.2607 99.6356C58.5724 100.162 60.9775 100.116 63.2675 99.5025C65.5574 98.8886 67.663 97.7252 69.4013 96.1131C71.1397 94.501 72.4584 92.4891 73.243 90.2518C75.5726 90.6905 77.9741 90.5541 80.239 89.8544C82.504 89.1546 84.564 87.9127 86.2402 86.2365C87.9165 84.5602 89.1584 82.5003 89.8581 80.2353C90.5579 77.9703 90.6943 75.5688 90.2556 73.2392C92.4925 72.4542 94.504 71.1351 96.1156 69.3965C97.7272 67.6579 98.8901 65.5523 99.5035 63.2624C100.117 60.9725 100.162 58.5675 99.6356 56.2562C99.1089 53.9448 98.0262 51.7968 96.4812 49.9987Z" fill="#18C07A"/>
<path d="M41.0246 69.0843L27.1301 55.1986C26.6028 54.6704 26.3066 53.9546 26.3066 53.2082C26.3066 52.4619 26.6028 51.746 27.1301 51.2179L28.8182 49.5277C29.3464 49.0004 30.0622 48.7042 30.8085 48.7042C31.5549 48.7042 32.2707 49.0004 32.7989 49.5277L42.899 59.6213L66.6855 34.3439C67.1973 33.8008 67.9037 33.483 68.6496 33.4603C69.3956 33.4375 70.12 33.7117 70.664 34.2226L72.3976 35.8586C72.9413 36.3705 73.2595 37.0774 73.2822 37.8238C73.305 38.5703 73.0304 39.2952 72.5189 39.8393L45.0724 69.0215C44.814 69.2969 44.5028 69.5175 44.1574 69.6703C43.812 69.823 43.4394 69.9048 43.0618 69.9106C42.6842 69.9165 42.3092 69.8464 41.9593 69.7044C41.6093 69.5625 41.2914 69.3516 41.0246 69.0843Z" fill="white"/>
</g>
<defs>
<clipPath id="clip0_112_1427">
<rect width="100" height="100" fill="white"/>
</clipPath>
</defs>
</svg>
