<svg width="39" height="18" viewBox="0 0 39 18" fill="none" xmlns="http://www.w3.org/2000/svg">
<rect width="38.25" height="18" rx="9" fill="#17DB94"/>
<circle cx="29.4543" cy="8.8332" r="6.58125" fill="white"/>
<path d="M9.2523 6.06148C9.6933 6.06148 10.0735 6.15373 10.393 6.33823C10.7125 6.52273 10.9578 6.78598 11.1288 7.12798C11.3043 7.46998 11.392 7.87948 11.392 8.35648C11.392 8.83348 11.3043 9.24298 11.1288 9.58498C10.9578 9.92698 10.7125 10.1902 10.393 10.3747C10.0735 10.5592 9.6933 10.6515 9.2523 10.6515C8.8113 10.6515 8.4288 10.5592 8.1048 10.3747C7.7853 10.1902 7.5378 9.92698 7.3623 9.58498C7.1913 9.24298 7.1058 8.83348 7.1058 8.35648C7.1058 7.87948 7.1913 7.46998 7.3623 7.12798C7.5378 6.78598 7.7853 6.52273 8.1048 6.33823C8.4288 6.15373 8.8113 6.06148 9.2523 6.06148ZM9.2523 6.82423C9.0003 6.82423 8.78655 6.88273 8.61105 6.99973C8.43555 7.11673 8.30055 7.28998 8.20605 7.51948C8.11605 7.74448 8.07105 8.02348 8.07105 8.35648C8.07105 8.68498 8.11605 8.96398 8.20605 9.19348C8.30055 9.42298 8.43555 9.59623 8.61105 9.71323C8.78655 9.83023 9.0003 9.88873 9.2523 9.88873C9.4998 9.88873 9.7113 9.83023 9.8868 9.71323C10.0623 9.59623 10.195 9.42298 10.285 9.19348C10.3795 8.96398 10.4268 8.68498 10.4268 8.35648C10.4268 8.02348 10.3795 7.74448 10.285 7.51948C10.195 7.28998 10.0623 7.11673 9.8868 6.99973C9.7113 6.88273 9.4998 6.82423 9.2523 6.82423ZM16.159 6.12898V10.584H15.0925L13.5332 7.96498L13.1485 7.23598H13.1417L13.1687 8.00548V10.584H12.3317V6.12898H13.3915L14.9507 8.74123L15.3355 9.47698H15.349L15.322 8.70748V6.12898H16.159Z" fill="#343434"/>
</svg>
